<?xml version="1.0" encoding="UTF-8"?>
<!DOCTYPE svg PUBLIC "-//W3C//DTD SVG 1.1//EN" "http://www.w3.org/Graphics/SVG/1.1/DTD/svg11.dtd">
<!-- Creator: CorelDRAW X7 -->
<svg xmlns="http://www.w3.org/2000/svg" xml:space="preserve" width="65.1086mm" height="19.8966mm" version="1.1" style="shape-rendering:geometricPrecision; text-rendering:geometricPrecision; image-rendering:optimizeQuality; fill-rule:evenodd; clip-rule:evenodd"
viewBox="0 0 6511 1990"
 xmlns:xlink="http://www.w3.org/1999/xlink">
 <defs>
  <style type="text/css">
   <![CDATA[
    .fil3 {fill:black}
    .fil1 {fill:#010101}
    .fil2 {fill:#9B9B9B}
    .fil4 {fill:#C96202}
    .fil0 {fill:#FDFDFD}
   ]]>
  </style>
 </defs>
 <g id="Camada_x0020_1">
  <metadata id="CorelCorpID_0Corel-Layer"/>
  <g id="_381080680">
   <path class="fil0" d="M443 423c56,-7 90,-3 130,29 71,56 75,166 12,223 -36,33 -54,45 -118,45 1,19 8,9 8,48l0 166c0,54 28,152 18,200 8,-4 5,3 9,-12 4,-20 -7,-17 2,-34l5 -16c0,0 0,-1 1,-2 4,31 -6,24 5,37 7,-20 0,-34 -3,-47l166 0 0 -649 -121 -1c-1,0 -2,1 -2,1l-6 1c-6,-1 -4,-3 -10,-6 0,1 -1,1 -1,2 0,1 0,1 -1,1l-5 2c0,-1 0,-2 0,-2 -39,-6 8,9 -65,7 -33,-1 -21,-1 -24,7z"/>
   <path class="fil1" d="M443 423c-117,32 -148,168 -77,246 8,8 23,19 29,27 -10,8 -17,7 -29,20l-64 85c-26,34 -65,77 -78,116 -17,52 -33,103 -50,150 -16,49 19,84 53,87 24,1 26,-7 37,-7 3,-5 2,-3 4,-6 8,-10 7,-6 13,-9 0,11 2,10 -5,18 1,7 -38,222 -43,231l-73 119c-16,28 -51,74 -52,105 -2,20 -2,59 0,79 6,73 118,72 124,0 2,-26 -5,-52 7,-72 11,-16 21,-33 29,-48 10,-15 20,-31 29,-48 6,-9 23,-42 32,-46 1,55 0,110 0,164 0,27 -3,54 8,73 9,15 29,30 49,31 18,1 64,2 81,0 36,-4 72,-56 42,-98 -15,-20 -24,-24 -53,-26 -7,-31 4,-157 -8,-233 -5,-37 -31,-183 -32,-207 43,1 61,-7 77,-40 10,-48 -18,-146 -18,-200l0 -166c0,-39 -7,-29 -8,-48 64,0 82,-12 118,-45 63,-57 59,-167 -12,-223 -40,-32 -74,-36 -130,-29z"/>
   <path class="fil2" d="M264 1147c9,-4 6,-4 13,-8l-1 11c7,-8 5,-7 5,-18 -6,3 -5,-1 -13,9 -2,3 -1,1 -4,6z"/>
  </g>
  <path class="fil3" d="M1476 520l0 -7c8,-72 78,-128 149,-121l8 1c71,7 128,77 120,149l-1 7c-7,72 -77,128 -149,120l-7 0c-72,-8 -128,-77 -120,-149zm128 -228c-9,2 -18,2 -28,4l-27 5c-1,-7 -18,-41 -22,-51l-63 28 23 52c-9,4 -36,25 -42,34l-47 -33 -30 42c-3,5 -7,9 -10,14 7,4 39,30 45,32l-10 25c-4,9 -6,18 -10,27l-55 -6 -7 70 55 6c1,9 2,18 3,28l5 27c-6,1 -41,18 -51,22l28 63 53 -23c2,7 3,6 7,11 3,4 4,7 8,12 3,4 5,5 9,9 5,6 4,6 10,10 -5,8 -11,15 -16,23 -6,9 -12,16 -18,24 10,6 19,13 29,20l27 20c5,-7 30,-39 32,-45l26 11c9,3 17,6 27,9l-6 55 69 7 6 -55c15,-2 28,-2 42,-6 5,-1 9,-2 14,-2 0,5 8,20 10,25 4,8 8,17 11,26l64 -28c-4,-8 -8,-17 -12,-26 -4,-9 -8,-17 -11,-27 9,-3 36,-25 42,-34l47 34c6,-10 12,-19 19,-29l21 -27c-7,-5 -39,-30 -46,-32l11 -25c4,-10 6,-18 9,-28l56 6 7 -69 -55 -6c-2,-14 -3,-28 -6,-42 -1,-4 -3,-9 -3,-14 7,0 42,-17 51,-21l-27 -64 -53 24c-3,-7 -3,-6 -7,-12 -11,-14 -3,-5 -17,-21 -5,-5 -4,-5 -10,-10l33 -46 -41 -30c-5,-4 -10,-7 -15,-11 -4,7 -29,39 -32,46l-25 -11c-9,-4 -18,-6 -27,-9l6 -56 -70 -7 -6 55z"/>
  <path class="fil3" d="M1498 1051l1 -7c7,-72 77,-128 149,-120l7 0c71,8 128,78 120,149l-1 8c-7,71 -77,128 -149,120l-7 -1c-72,-7 -128,-77 -120,-149zm129 -227c-10,1 -19,2 -29,3l-27 5c-1,-6 -18,-41 -22,-51l-63 28 23 53c-9,3 -36,25 -42,34l-47 -34 -30 42c-3,5 -7,10 -10,14 7,5 39,30 45,32l-10 26c-4,9 -6,18 -10,27l-55 -6 -7 69 55 6c1,10 2,19 3,29l6 27c-7,0 -42,18 -52,21l28 64 53 -23c2,6 3,5 7,11 3,4 4,7 8,11 3,5 5,6 9,10 5,5 4,6 10,10 -5,8 -10,15 -16,23 -6,8 -12,16 -18,24 10,6 19,12 29,19l27 21c5,-7 30,-39 32,-46l26 11c9,4 17,6 27,9l-6 56 69 7 6 -55c15,-2 28,-3 42,-6 5,-1 9,-3 14,-3 0,5 8,20 10,26 4,8 8,17 12,25l63 -27c-4,-9 -8,-18 -12,-26 -4,-9 -8,-18 -11,-27 9,-4 36,-25 42,-34l47 33c6,-9 12,-19 20,-28l20 -28c-7,-4 -39,-29 -45,-32l10 -25c4,-9 6,-18 9,-27l56 6 7 -70 -55 -6c-2,-14 -3,-28 -6,-42 -1,-4 -3,-8 -3,-13 7,-1 42,-18 51,-22l-27 -63 -53 23c-3,-7 -3,-6 -7,-11 -11,-14 -3,-6 -17,-21 -5,-5 -4,-6 -10,-10l33 -47 -41 -30c-5,-3 -10,-7 -15,-10 -4,7 -29,39 -32,45l-25 -10c-9,-4 -18,-6 -27,-10l6 -55 -70 -7 -5 55z"/>
  <path class="fil3" d="M2573 881l1 -7c8,-72 77,-128 149,-121l7 1c72,8 128,77 120,149l0 7c-8,72 -77,128 -149,121l-7 -1c-72,-8 -128,-77 -121,-149zm129 -227c-10,1 -19,1 -29,3l-26 5c-1,-7 -18,-41 -22,-51l-63 28 23 52c-10,4 -37,26 -43,35l-46 -34 -30 42c-4,5 -7,10 -11,14 7,5 39,30 46,32l-11 25c-3,10 -6,18 -9,27l-56 -6 -7 70 55 6c2,9 2,18 4,28l5 27c-7,1 -41,18 -51,22l28 63 52 -23c3,7 3,6 7,11 4,5 5,7 8,12 4,4 6,6 9,9 5,6 4,6 10,10 -5,8 -10,15 -16,24 -6,8 -12,15 -17,23 10,7 19,13 28,20l28 20c4,-7 30,-39 32,-45l25 11c10,3 18,6 27,9l-6 55 70 8 6 -56c14,-2 28,-2 42,-5 4,-1 8,-3 13,-3 1,5 8,20 10,25 4,9 8,17 12,26l63 -28c-3,-8 -8,-17 -11,-26 -4,-9 -8,-17 -12,-27 9,-3 36,-25 42,-34l47 34c6,-10 13,-19 20,-28l20 -28c-7,-5 -39,-30 -45,-32l11 -25c3,-10 6,-18 9,-28l55 6 8 -69 -56 -6c-2,-14 -2,-28 -6,-42 -1,-4 -2,-9 -2,-13 6,-1 41,-18 51,-22l-28 -63 -53 23c-2,-7 -3,-6 -7,-11 -11,-15 -3,-6 -17,-22 -5,-5 -3,-5 -10,-10l34 -46 -42 -30c-5,-4 -10,-7 -14,-11 -5,7 -30,39 -32,46l-25 -11c-10,-3 -18,-6 -28,-9l6 -55 -69 -8 -6 56z"/>
  <path class="fil3" d="M2053 1036l1 -7c7,-72 77,-128 149,-121l7 1c71,8 128,77 120,149l-1 7c-7,72 -77,128 -149,121l-7 -1c-72,-8 -128,-77 -120,-149zm129 -227c-10,1 -19,2 -29,3l-27 5c-1,-6 -18,-41 -22,-51l-63 28 23 52c-9,4 -36,26 -42,35l-47 -34 -30 42c-3,5 -6,10 -10,14 7,5 39,30 45,32l-10 25c-4,10 -6,18 -10,27l-55 -5 -7 69 55 6c1,10 2,18 3,28l6 27c-7,1 -42,18 -52,22l28 63 53 -23c3,7 3,6 7,11 3,5 4,7 8,12 4,4 5,6 9,10 5,5 4,5 10,10 -5,8 -10,14 -16,23 -6,8 -12,15 -18,23 10,7 19,13 29,20l27 21c5,-7 30,-39 32,-46l26 11c9,3 17,6 27,9l-6 55 69 8 6 -56c15,-1 28,-2 42,-5 5,-1 9,-3 14,-3 0,5 8,20 10,25 4,9 8,17 12,26l63 -28c-4,-8 -8,-17 -12,-25 -4,-9 -8,-18 -11,-27 9,-4 36,-26 42,-35l47 34c6,-10 12,-19 20,-28l20 -28c-7,-5 -39,-30 -45,-32l10 -25c4,-10 6,-18 9,-27l56 5 7 -69 -55 -6c-2,-14 -3,-28 -6,-42 -1,-4 -3,-9 -3,-13 7,-1 42,-18 51,-22l-27 -63 -53 23c-3,-7 -3,-6 -7,-11 -11,-15 -3,-6 -17,-21 -5,-6 -4,-6 -10,-11l33 -46 -41 -30c-5,-3 -10,-7 -15,-10 -4,6 -29,38 -32,45l-25 -11c-9,-3 -18,-6 -27,-9l6 -55 -70 -8 -5 56z"/>
  <path class="fil3" d="M2722 1396l1 -7c7,-72 77,-128 149,-120l7 0c71,8 128,78 120,149l-1 8c-7,71 -77,128 -149,120l-7 -1c-72,-7 -128,-77 -120,-149zm129 -227c-10,1 -19,2 -29,3l-27 5c-1,-6 -18,-41 -22,-51l-63 28 23 53c-9,4 -36,25 -42,34l-47 -34 -29 42c-4,5 -7,10 -11,14 7,5 39,30 45,32l-10 26c-4,9 -6,18 -10,27l-55 -6 -7 69 55 6c1,10 2,19 3,29l6 27c-7,0 -42,18 -52,22l28 63 53 -23c3,6 3,5 7,11 3,4 4,7 8,11 4,5 5,6 9,10 5,5 4,6 10,10 -5,8 -10,15 -16,23 -6,8 -12,16 -18,24 10,6 19,12 29,19l27 21c5,-7 30,-39 32,-45l26 10c9,4 17,6 27,9l-6 56 70 7 5 -55c15,-2 28,-3 42,-6 5,-1 9,-3 14,-3 0,5 8,20 10,26 4,8 8,17 12,25l63 -27c-4,-9 -8,-18 -12,-26 -4,-9 -8,-18 -11,-27 9,-4 36,-25 42,-34l47 33c6,-9 12,-18 20,-28l20 -28c-7,-4 -39,-29 -45,-32l10 -25c4,-9 6,-18 9,-27l56 6 7 -70 -55 -6c-2,-14 -3,-28 -6,-42 -1,-4 -3,-8 -3,-13 7,-1 42,-18 51,-22l-27 -63 -53 23c-3,-6 -3,-6 -7,-11 -11,-14 -3,-6 -17,-21 -5,-5 -4,-6 -10,-10l33 -47 -41 -30c-5,-3 -10,-7 -15,-10 -4,7 -29,39 -32,45l-25 -10c-9,-4 -18,-6 -27,-10l6 -55 -70 -7 -5 55z"/>
  <path class="fil3" d="M2297 434l0 -7c8,-72 78,-128 149,-120l8 0c71,8 128,77 120,149l-1 7c-7,72 -77,128 -149,121l-7 -1c-72,-8 -128,-77 -120,-149zm128 -227c-9,1 -18,2 -28,3l-27 5c-1,-6 -18,-41 -22,-51l-63 28 23 53c-9,3 -36,25 -42,34l-47 -34 -30 42c-3,5 -7,10 -10,14 7,5 39,30 45,32l-10 25c-4,10 -6,18 -10,28l-55 -6 -7 69 55 6c1,10 2,19 3,29l5 26c-6,1 -41,18 -51,22l28 63 53 -23c2,7 3,6 7,12 3,4 4,7 8,11 3,5 5,6 9,10 5,5 4,5 10,10 -5,8 -11,15 -16,23 -6,8 -12,15 -18,23 10,7 19,13 29,20l27 21c5,-7 30,-39 32,-46l26 11c9,3 17,6 27,9l-6 56 69 7 6 -55c15,-2 28,-3 42,-6 5,-1 9,-3 14,-3 0,5 8,20 10,25 4,9 8,17 12,26l63 -28c-4,-8 -8,-17 -12,-25 -4,-9 -8,-18 -11,-27 9,-4 36,-26 42,-34l47 33c6,-10 12,-19 19,-28l21 -28c-7,-4 -39,-30 -45,-32l10 -25c4,-9 6,-18 9,-27l56 6 7 -70 -55 -6c-2,-14 -3,-28 -6,-42 -1,-4 -3,-8 -3,-13 7,-1 42,-18 51,-22l-27 -63 -53 23c-3,-7 -3,-6 -7,-11 -11,-15 -3,-6 -17,-21 -5,-6 -4,-6 -10,-10l33 -47 -41 -30c-5,-3 -10,-7 -15,-10 -4,7 -29,39 -32,45l-25 -11c-9,-3 -18,-6 -27,-9l6 -55 -70 -8 -6 56z"/>
  <path class="fil4" d="M3547 461l1 -7c7,-72 77,-128 149,-121l7 1c72,8 128,77 120,149l0 7c-8,72 -78,128 -149,121l-8 -1c-71,-8 -128,-77 -120,-149zm129 -227c-10,1 -19,1 -29,3l-27 5c0,-7 -18,-41 -21,-51l-64 28 23 52c-9,4 -36,26 -42,35l-46 -34 -30 42c-4,5 -7,10 -11,14 7,5 39,30 46,32l-11 25c-4,10 -6,18 -9,27l-56 -6 -7 70 55 6c1,9 2,18 4,28l5 27c-7,1 -42,18 -51,22l27 63 53 -23c3,7 3,6 7,11 3,5 5,7 8,12 4,4 6,6 9,9 5,6 4,6 10,10 -5,8 -10,15 -16,24 -6,8 -12,15 -17,23 9,7 19,13 28,20l28 20c4,-7 29,-39 32,-45l25 11c9,3 18,6 27,9l-6 55 70 8 6 -56c14,-2 28,-2 42,-5 4,-1 8,-3 13,-3 1,5 8,20 10,25 4,9 8,17 12,26l63 -28c-3,-8 -8,-17 -12,-26 -4,-9 -7,-17 -11,-27 9,-3 36,-25 42,-34l47 34c6,-10 13,-19 20,-28l20 -28c-7,-5 -39,-30 -45,-32l11 -25c3,-10 6,-18 9,-28l55 6 7 -69 -55 -6c-2,-14 -3,-28 -6,-42 -1,-4 -3,-9 -2,-13 6,-1 41,-18 51,-22l-28 -63 -53 23c-2,-7 -3,-6 -7,-11 -11,-15 -3,-6 -17,-22 -5,-5 -4,-5 -10,-10l34 -46 -42 -30c-5,-4 -10,-7 -14,-11 -5,7 -30,39 -32,46l-26 -11c-9,-3 -17,-6 -27,-9l6 -55 -69 -8 -6 56z"/>
  <path class="fil4" d="M3093 738l1 -7c7,-72 77,-128 149,-120l7 0c72,8 128,78 120,149l-1 7c-7,72 -77,128 -149,121l-7 -1c-71,-7 -128,-77 -120,-149zm129 -227c-10,1 -19,2 -29,3l-27 5c-1,-6 -18,-41 -22,-51l-63 28 23 53c-9,3 -36,25 -42,34l-47 -34 -29 42c-4,5 -7,10 -11,14 7,5 39,30 45,32l-10 26c-4,9 -6,18 -9,27l-56 -6 -7 69 55 6c1,10 2,19 3,29l6 27c-7,0 -42,17 -51,21l27 64 53 -24c3,7 3,6 7,12 3,4 4,7 8,11 4,5 6,6 9,10 5,5 4,6 10,10 -5,8 -10,15 -16,23 -6,8 -12,15 -17,23 9,7 18,13 28,20l28 21c4,-7 29,-39 32,-46l25 11c9,4 18,6 27,9l-6 56 70 7 5 -55c15,-2 28,-3 42,-6 5,-1 9,-3 14,-3 0,5 8,20 10,26 4,8 8,17 12,25l63 -28c-4,-8 -8,-17 -12,-25 -4,-9 -8,-18 -11,-27 9,-4 36,-25 42,-34l47 33c6,-9 13,-19 20,-28l20 -28c-7,-4 -39,-30 -45,-32l10 -25c4,-9 6,-18 10,-27l55 6 7 -70 -55 -6c-2,-14 -3,-28 -6,-42 -1,-4 -3,-8 -3,-13 7,-1 42,-18 52,-22l-28 -63 -53 23c-3,-7 -3,-6 -7,-11 -11,-15 -3,-6 -17,-21 -5,-6 -4,-6 -10,-10l34 -47 -42 -30c-5,-3 -10,-7 -14,-10 -5,7 -30,39 -32,45l-26 -11c-9,-3 -17,-6 -27,-9l6 -55 -69 -7 -6 55z"/>
  <path class="fil4" d="M3945 1129l0 -7c8,-72 78,-128 149,-121l7 1c72,8 129,77 121,149l-1 7c-7,72 -77,128 -149,121l-7 -1c-72,-8 -128,-77 -120,-149zm128 -227c-9,1 -18,2 -28,3l-27 5c-1,-6 -18,-41 -22,-51l-63 28 23 52c-9,4 -36,26 -42,35l-47 -34 -30 42c-3,5 -7,10 -10,14 7,5 39,30 45,32l-11 25c-3,10 -6,18 -9,27l-55 -5 -7 69 55 6c1,9 2,18 3,28l5 27c-6,1 -41,18 -51,22l28 63 53 -23c2,7 3,6 7,11 3,5 4,7 8,12 3,4 5,6 9,10 5,5 4,5 10,10 -5,8 -11,14 -16,23 -6,8 -12,15 -18,23 10,7 19,13 29,20l27 20c5,-6 30,-38 32,-45l26 11c9,3 17,6 27,9l-6 55 69 8 6 -56c14,-1 28,-2 42,-5 4,-1 9,-3 14,-3 0,5 8,20 10,25 4,9 8,17 11,26l64 -28c-4,-8 -8,-17 -12,-25 -4,-9 -8,-18 -12,-27 10,-4 37,-26 43,-35l46 34c7,-10 13,-19 20,-28l21 -28c-7,-5 -39,-30 -46,-32l11 -25c4,-10 6,-18 9,-27l56 5 7 -69 -55 -6c-2,-14 -3,-28 -6,-42 -1,-4 -3,-9 -3,-13 7,-1 42,-18 51,-22l-27 -63 -53 23c-3,-7 -3,-6 -7,-11 -11,-15 -3,-6 -17,-22 -5,-5 -4,-5 -10,-10l33 -46 -41 -30c-5,-3 -10,-7 -15,-11 -4,7 -30,39 -32,46l-25 -11c-9,-3 -18,-6 -27,-9l6 -55 -70 -8 -6 56z"/>
  <path class="fil4" d="M3410 1167l1 -7c8,-72 77,-128 149,-121l7 1c72,8 128,77 121,149l-1 7c-8,72 -77,128 -149,121l-7 -1c-72,-8 -128,-77 -121,-149zm129 -227c-10,1 -18,2 -28,3l-27 5c-1,-6 -18,-41 -22,-51l-63 28 23 52c-9,4 -36,26 -42,35l-47 -34 -30 42c-3,5 -7,10 -10,14 7,5 39,30 45,32l-11 25c-3,10 -6,18 -9,27l-55 -5 -8 69 56 6c1,9 2,18 3,28l5 27c-6,1 -41,18 -51,22l28 63 53 -23c2,7 2,6 7,11 3,5 4,7 8,12 3,4 5,6 9,10 4,5 3,5 10,10 -6,8 -11,14 -17,23 -5,8 -11,15 -17,23 10,7 19,13 28,20l28 20c5,-6 30,-38 32,-45l25 11c10,3 18,6 28,9l-6 55 69 8 6 -56c14,-1 28,-2 42,-5 4,-1 9,-3 13,-3 1,5 8,20 11,25 3,9 8,17 11,26l63 -28c-3,-8 -7,-17 -11,-25 -4,-9 -8,-18 -12,-27 10,-4 37,-26 43,-35l46 34c7,-10 13,-19 20,-28l21 -28c-7,-5 -39,-30 -46,-32l11 -25c3,-10 6,-18 9,-27l55 5 8 -69 -55 -6c-2,-14 -3,-28 -6,-42 -1,-4 -3,-9 -3,-13 7,-1 41,-18 51,-22l-28 -63 -52 23c-3,-7 -3,-6 -7,-11 -11,-15 -3,-6 -17,-22 -5,-5 -4,-5 -10,-10l33 -46 -42 -30c-5,-3 -10,-7 -14,-11 -5,7 -30,39 -32,46l-25 -11c-10,-3 -18,-6 -27,-9l6 -55 -70 -8 -6 56z"/>
  <path class="fil4" d="M4074 593l1 -7c8,-72 77,-128 149,-120l7 0c72,8 128,78 120,149l0 7c-8,72 -77,129 -149,121l-7 -1c-72,-7 -128,-77 -121,-149zm129 -227c-10,1 -19,2 -29,3l-26 5c-1,-6 -18,-41 -22,-51l-63 28 23 53c-10,3 -37,25 -43,34l-46 -34 -30 42c-4,5 -7,10 -11,14 7,5 39,30 46,32l-11 26c-3,9 -6,18 -9,27l-56 -6 -7 69 55 6c2,10 2,19 4,29l5 27c-7,0 -41,18 -51,21l28 64 52 -24c3,7 3,6 7,12 4,4 5,7 8,11 4,5 6,6 9,10 5,5 4,6 10,10 -5,8 -10,15 -16,23 -6,8 -12,15 -17,23 9,7 19,13 28,20l28 21c4,-7 30,-39 32,-46l25 11c10,4 18,6 27,9l-6 56 70 7 6 -55c14,-2 28,-3 42,-6 4,-1 8,-3 13,-3 1,5 8,20 10,26 4,8 8,17 12,25l63 -27c-3,-9 -8,-18 -11,-26 -4,-9 -8,-18 -12,-27 9,-4 36,-25 42,-34l47 33c6,-9 13,-19 20,-28l20 -28c-7,-4 -39,-30 -45,-32l11 -25c3,-9 6,-18 9,-27l55 6 7 -70 -55 -6c-2,-14 -2,-28 -6,-42 -1,-4 -2,-8 -2,-13 6,-1 41,-18 51,-22l-28 -63 -53 23c-2,-7 -3,-6 -7,-11 -11,-14 -3,-6 -17,-21 -5,-5 -3,-6 -10,-10l34 -47 -42 -30c-5,-3 -10,-7 -14,-10 -5,7 -30,39 -32,45l-25 -11c-10,-3 -18,-5 -28,-9l6 -55 -69 -7 -6 55z"/>
  <path class="fil3" d="M4591 736l1 -7c7,-71 77,-128 149,-120l7 1c72,7 128,77 120,149l0 7c-8,72 -78,128 -149,120l-8 -1c-71,-7 -128,-77 -120,-149zm129 -227c-10,1 -19,2 -29,3l-27 6c0,-7 -18,-42 -22,-51l-63 27 23 53c-9,4 -36,25 -42,34l-47 -33 -29 41c-4,5 -7,10 -11,15 7,4 39,29 45,32l-10 25c-4,9 -6,18 -9,27l-56 -6 -7 70 55 5c1,10 2,19 4,29l5 27c-7,1 -42,18 -51,22l27 63 53 -23c3,6 3,5 7,11 3,4 4,7 8,11 4,5 6,6 9,10 5,5 4,6 10,10 -5,8 -10,15 -16,23 -6,8 -12,16 -17,24 9,6 18,13 28,20l28 20c4,-7 29,-39 32,-45l25 10c9,4 18,6 27,10l-6 55 70 7 6 -55c14,-2 28,-3 42,-6 4,-1 8,-3 13,-3 1,5 8,20 10,26 4,8 8,17 12,26l63 -28c-3,-9 -8,-18 -12,-26 -4,-9 -8,-18 -11,-27 9,-4 36,-25 42,-34l47 34c6,-10 13,-19 20,-29l20 -27c-7,-5 -39,-30 -45,-32l10 -26c4,-9 6,-18 10,-27l55 6 7 -70 -55 -5c-2,-15 -3,-28 -6,-42 -1,-5 -3,-9 -2,-14 6,-1 41,-18 51,-22l-28 -63 -53 23c-2,-6 -3,-5 -7,-11 -11,-14 -3,-5 -17,-21 -5,-5 -4,-6 -10,-10l34 -47 -42 -29c-5,-4 -10,-7 -14,-11 -5,7 -30,39 -32,45l-26 -10c-9,-4 -17,-6 -27,-9l6 -56 -69 -7 -6 55z"/>
  <path class="fil3" d="M4613 1268l1 -7c7,-72 77,-128 149,-121l7 1c72,8 128,77 120,149l0 7c-8,72 -78,128 -149,121l-8 -1c-71,-8 -128,-77 -120,-149zm129 -227c-10,1 -19,2 -29,3l-27 5c0,-6 -18,-41 -21,-51l-64 28 23 52c-9,4 -36,26 -42,35l-46 -34 -30 42c-4,5 -7,10 -11,14 7,5 39,30 46,32l-11 25c-4,10 -6,18 -9,28l-56 -6 -7 69 55 6c1,10 2,19 4,28l5 27c-7,1 -42,18 -51,22l27 63 53 -23c3,7 3,6 7,11 3,5 5,8 8,12 4,4 6,6 9,10 5,5 4,5 10,10 -5,8 -10,15 -16,23 -6,8 -12,15 -17,23 9,7 19,13 28,20l28 21c4,-7 29,-39 32,-46l25 11c9,3 18,6 27,9l-6 55 70 8 6 -56c14,-1 28,-2 42,-5 4,-1 8,-3 13,-3 1,5 8,20 10,25 4,9 8,17 12,26l63 -28c-3,-8 -8,-17 -12,-25 -4,-9 -7,-18 -11,-27 9,-4 36,-26 42,-35l47 34c6,-10 13,-19 20,-28l20 -28c-7,-5 -39,-30 -45,-32l11 -25c3,-10 6,-18 9,-27l55 6 7 -70 -55 -6c-2,-14 -3,-28 -6,-42 -1,-4 -3,-8 -2,-13 6,-1 41,-18 51,-22l-28 -63 -53 23c-2,-7 -3,-6 -7,-11 -11,-15 -3,-6 -17,-21 -5,-6 -4,-6 -10,-10l34 -47 -42 -30c-5,-3 -10,-7 -14,-10 -5,7 -30,39 -32,45l-26 -11c-9,-3 -17,-6 -27,-9l6 -55 -69 -8 -6 56z"/>
  <path class="fil3" d="M5688 1098l1 -8c8,-71 77,-128 149,-120l7 1c72,7 128,77 121,149l-1 7c-8,72 -77,128 -149,120l-7 0c-72,-8 -128,-78 -121,-149zm129 -228c-10,1 -18,2 -28,4l-27 5c-1,-7 -18,-42 -22,-51l-63 27 23 53c-9,4 -36,25 -42,34l-47 -33 -30 41c-3,5 -7,10 -10,15 7,4 39,29 45,32l-11 25c-3,9 -6,18 -9,27l-55 -6 -8 70 56 6c1,9 2,18 3,28l5 27c-6,1 -41,18 -51,22l28 63 52 -23c3,6 3,6 8,11 3,4 4,7 8,12 3,4 5,5 9,9 4,5 3,6 10,10 -6,8 -11,15 -17,23 -5,9 -12,16 -17,24 10,6 19,13 28,20l28 20c5,-7 30,-39 32,-45l25 10c10,4 18,6 27,10l-5 55 69 7 6 -55c14,-2 28,-3 42,-6 4,-1 9,-3 13,-2 1,4 8,20 11,25 3,8 8,17 11,26l63 -28c-3,-9 -7,-18 -11,-26 -4,-9 -8,-18 -12,-27 10,-4 37,-25 43,-34l46 34c7,-10 13,-19 20,-29l21 -27c-7,-5 -39,-30 -46,-32l11 -26c3,-9 6,-18 9,-27l55 6 8 -69 -56 -6c-1,-14 -2,-28 -5,-42 -1,-5 -3,-9 -3,-14 6,0 41,-18 51,-22l-28 -63 -52 23c-3,-6 -3,-5 -7,-11 -11,-14 -3,-5 -17,-21 -5,-5 -4,-6 -11,-10l34 -47 -42 -29c-5,-4 -10,-7 -14,-11 -5,7 -30,39 -32,45l-25 -10c-10,-4 -18,-6 -27,-9l6 -56 -70 -7 -6 55z"/>
  <path class="fil3" d="M5168 1253l1 -7c7,-72 77,-128 149,-121l7 1c72,7 128,77 120,149l0 7c-8,72 -78,128 -149,120l-7 0c-72,-8 -129,-78 -121,-149zm129 -228c-10,2 -19,2 -29,4l-27 5c0,-7 -18,-41 -21,-51l-64 28 24 52c-10,4 -37,25 -43,34l-46 -33 -30 42c-4,5 -7,9 -11,14 7,4 39,30 46,32l-11 25c-4,9 -6,18 -9,27l-56 -6 -7 70 55 6c2,9 2,18 4,28l5 27c-7,1 -42,18 -51,22l27 63 53 -23c3,7 3,6 7,11 3,4 5,7 8,12 4,4 6,5 9,9 5,6 4,6 10,10 -5,8 -10,15 -16,23 -6,9 -12,16 -17,24 9,6 19,13 28,20l28 20c4,-7 30,-39 32,-45l25 11c10,3 18,6 27,9l-6 55 70 7 6 -55c14,-2 28,-2 42,-6 4,-1 8,-2 13,-2 1,5 8,20 10,25 4,8 8,17 12,26l63 -28c-3,-8 -8,-17 -12,-26 -4,-9 -7,-17 -11,-27 9,-3 36,-25 42,-34l47 34c6,-10 13,-19 20,-29l20 -27c-7,-5 -39,-30 -45,-32l11 -26c3,-9 6,-18 9,-27l55 6 7 -69 -55 -6c-2,-14 -2,-28 -6,-42 -1,-4 -2,-9 -2,-14 6,0 41,-17 51,-21l-28 -64 -53 24c-2,-7 -3,-6 -7,-12 -11,-14 -3,-5 -17,-21 -5,-5 -4,-5 -10,-10l34 -46 -42 -30c-5,-4 -10,-7 -14,-11 -5,7 -30,39 -32,46l-26 -11c-9,-4 -17,-6 -27,-9l6 -56 -69 -7 -6 55z"/>
  <path class="fil3" d="M5837 1613l1 -7c7,-72 77,-128 149,-121l7 1c72,8 128,77 120,149l0 7c-8,72 -78,128 -149,121l-7 -1c-72,-8 -129,-77 -121,-149zm129 -227c-10,1 -19,2 -29,3l-27 5c0,-6 -18,-41 -21,-51l-64 28 24 53c-10,3 -37,25 -43,34l-46 -34 -30 42c-4,5 -7,10 -11,14 7,5 39,30 46,32l-11 25c-4,10 -6,18 -9,28l-56 -6 -7 69 55 6c2,10 2,19 4,28l5 27c-7,1 -42,18 -51,22l27 63 53 -23c3,7 3,6 7,11 3,5 5,8 8,12 4,4 6,6 9,10 5,5 4,5 10,10 -5,8 -10,15 -16,23 -6,8 -12,15 -17,23 9,7 19,13 28,20l28 21c4,-7 30,-39 32,-46l25 11c10,3 18,6 27,9l-6 55 70 8 6 -55c14,-2 28,-3 42,-6 4,-1 8,-3 13,-3 1,5 8,20 10,25 4,9 8,17 12,26l63 -28c-3,-8 -8,-17 -12,-25 -4,-9 -7,-18 -11,-27 9,-4 36,-26 42,-35l47 34c6,-10 13,-19 20,-28l20 -28c-7,-5 -39,-30 -45,-32l11 -25c3,-10 6,-18 9,-27l55 6 7 -70 -55 -6c-2,-14 -2,-28 -6,-42 -1,-4 -2,-8 -2,-13 6,-1 41,-18 51,-22l-28 -63 -53 23c-2,-7 -3,-6 -7,-11 -11,-15 -3,-6 -17,-21 -5,-6 -4,-6 -10,-10l34 -47 -42 -30c-5,-3 -10,-7 -14,-10 -5,7 -30,39 -32,45l-26 -11c-9,-3 -17,-6 -27,-9l6 -55 -69 -8 -6 56z"/>
  <path class="fil3" d="M5412 651l1 -7c7,-72 77,-128 149,-121l7 1c72,8 128,77 120,149l0 7c-8,72 -78,128 -149,121l-8 -1c-71,-8 -128,-77 -120,-149zm129 -227c-10,1 -19,1 -29,3l-27 5c0,-6 -18,-41 -21,-51l-64 28 23 52c-9,4 -36,26 -42,35l-47 -34 -29 42c-4,5 -7,10 -11,14 7,5 39,30 46,32l-11 25c-4,10 -6,18 -9,27l-56 -6 -7 70 55 6c1,9 2,18 4,28l5 27c-7,1 -42,18 -51,22l27 63 53 -23c3,7 3,6 7,11 3,5 4,7 8,12 4,4 6,6 9,9 5,6 4,6 10,10 -5,8 -10,15 -16,24 -6,8 -12,15 -17,23 9,7 19,13 28,20l28 20c4,-7 29,-39 32,-45l25 11c9,3 18,6 27,9l-6 55 70 8 6 -56c14,-1 28,-2 42,-5 4,-1 8,-3 13,-3 1,5 8,20 10,25 4,9 8,17 12,26l63 -28c-3,-8 -8,-17 -12,-26 -4,-9 -8,-17 -11,-26 9,-4 36,-26 42,-35l47 34c6,-10 13,-19 20,-28l20 -28c-7,-5 -39,-30 -45,-32l10 -25c4,-10 6,-18 10,-27l55 5 7 -69 -55 -6c-2,-14 -3,-28 -6,-42 -1,-4 -3,-9 -2,-13 6,-1 41,-18 51,-22l-28 -63 -53 23c-2,-7 -3,-6 -7,-11 -11,-15 -3,-6 -17,-22 -5,-5 -4,-5 -10,-10l34 -46 -42 -30c-5,-4 -10,-7 -14,-11 -5,7 -30,39 -32,46l-26 -11c-9,-3 -17,-6 -27,-9l6 -55 -69 -8 -6 56z"/>
 </g>
</svg>
